<?xml version="1.0" encoding="utf-8" ?>
<svg baseProfile="full" height="300mm" version="1.1" viewBox="0,0,200,300" width="200mm" xmlns="http://www.w3.org/2000/svg" xmlns:ev="http://www.w3.org/2001/xml-events" xmlns:xlink="http://www.w3.org/1999/xlink"><defs /><rect fill="#222222" height="300" width="200" x="0" y="0" /><text fill="#FFFFFF" style="font-size:12px; font-family:Arial; font-weight:bold;" x="10" y="20">Over 10km Runs</text><text fill="#FFFFFF" style="font-size:4px; font-family:Arial" x="10" y="280">ATHLETE</text><text fill="#FFFFFF" style="font-size:9px; font-family:Arial" x="10" y="290">antzuhl1998</text><text fill="#FFFFFF" style="font-size:4px; font-family:Arial" x="120" y="280">STATISTICS</text><text fill="#FFFFFF" style="font-size:3px; font-family:Arial" x="120" y="285">Number: 1</text><text fill="#FFFFFF" style="font-size:3px; font-family:Arial" x="120" y="290">Weekly: 1.0</text><text fill="#FFFFFF" style="font-size:3px; font-family:Arial" x="141" y="285">Total: 14.0 km</text><text fill="#FFFFFF" style="font-size:3px; font-family:Arial" x="141" y="290">Avg: 14.0 km</text><text fill="#FFFFFF" style="font-size:3px; font-family:Arial" x="167" y="285">Min: 14.0 km</text><text fill="#FFFFFF" style="font-size:3px; font-family:Arial" x="167" y="290">Max: 14.0 km</text><polyline fill="none" points="169.6430951608345,87.20591488579521 165.85055056889541,91.05504649571958 161.33941858098842,93.13564088830026 160.7805172726512,94.17593353494885 160.82043879455887,95.2162231488328 159.14373487001285,96.15248120820615 160.66075270669535,96.5165809012251 165.85055056889541,99.94950259797042 166.80866709747352,101.09380249070819 167.36756840581074,103.38239126765984 167.08811775175855,106.08706817089114 167.4873329717666,107.85549967727275 166.768745575333,110.04002061468782 165.0521201286465,113.00470621089335 160.62083118478768,116.85355953802355 157.94608920952305,119.50612347802962 154.83221049187705,123.35490668434068 155.3112687561661,126.1114421178936 156.18954224069603,127.98379366536392 160.66075270669535,131.46842177971848 161.49910466885194,132.76864743421902 161.3793401028961,133.4967717315012 160.30145900859497,135.36908453135402 159.5828716121614,135.8371611966868 157.467030945234,136.46126246170024 155.07173962402157,136.6692959742213 154.7523674480617,140.1018314229732 154.03378005162813,141.40202562336344 151.23927351040766,141.45403329283 149.68233415158466,141.97410957093234 146.60837695607916,146.13469251128845 145.65026042773388,146.70676887242007 141.53834366006777,146.75877576888888 139.26281690504402,147.85091884376016 139.06320929504,148.4749991002318 140.14109038934112,150.19121417880524 140.06124734529294,151.23134051292436 136.90744710573927,153.98766063837684 136.2687027535867,156.32791573321447 134.31254817475565,157.62805082218256 133.95325447665527,159.91627707556472 133.4741962121334,160.644345988665 132.55600120592862,161.58043240886764 128.60377052612603,162.77653926215135 129.08282879018225,164.12865522599895 130.7595327149611,165.06473250806448 131.27851250115782,166.10481549755787 131.47812011116184,167.56092659110436 130.67968967091292,169.74508209322812 131.0789048911538,169.12103902784293 131.19866945734248,169.53706785931718 131.438198589487,169.22504628114984 132.19670750759542,169.64107499140664 133.67380382237025,172.08523387092282 134.55207730666734,172.2932466197817 135.15090013691224,173.1252964027808 135.55011535715312,174.4253703058057 136.42838884168305,175.62143411429133 136.62799645168707,177.44152352403034 136.98729015002027,177.33751866503735 137.1469762378838,177.85754265761352 137.26674080383964,177.54552835295908 138.58415103075095,180.40564926946536 138.46438646456227,181.75769845224568 138.6639940745663,182.01770732330624 138.8636016845703,182.06970907488721 138.46438646456227,181.5496912189701 138.62407255265862,182.17371255505714 138.18493581051007,182.485722813959 138.90352320671082,182.485722813959 139.46242451504804,181.96570556421648 139.06320929504,182.9537376910448 139.38258147099987,183.52575504078413 139.78179669124074,183.57775657248567 139.82171821314842,183.10974251379957 140.73991321958601,183.52575504078413 141.57826518197544,186.48983026179485 141.1391284398269,187.32184695239994 141.1391284398269,189.71388413468958 141.57826518197544,191.37790054653306 140.8596777857747,192.88590871941415 140.66007017553784,192.57390755109373 140.38061952148564,192.83390854368918 139.9015612571966,192.67790797096677 139.46242451504804,191.48190131466254 138.4244649426546,190.96189717081143 137.86556363431737,192.0539049980871 137.86556363431737,193.0419092013326 136.90744710573927,193.9259106440586 137.62603450217284,194.7059100990591 137.1469762378838,194.96590953867417 137.70587754645385,195.17390895399149 135.949330577394,195.9539056820213 134.03309752047062,197.46189452317776 132.47615816188045,197.46189452317776 128.20455530588515,199.6978662517795 127.52588943159208,199.6978662517795 127.32628182158805,198.9178777046036 126.76738051325083,198.81387910287594 125.84918550681323,199.6458670682914 125.41004876466468,199.4898694725416 123.69342331797816,200.89384538060403 124.01279549393803,202.14181932996144 123.49381570750847,202.81780339754187 124.1325600601267,203.8577763864596 121.73726873891428,205.78171842879965 120.97875982057303,205.7297201315232 119.86095720413141,206.66568832300254 119.5016635057982,206.40569740484352 119.1822913296055,206.97767717487295 116.50754935434088,206.56169197856798 115.62927587004378,207.08167339820648 112.43555410858244,207.18566959127202 111.71696671238169,207.75764811135014 110.04026278760284,207.8096461132227 107.60504994448274,207.23766767632333 107.24575624614954,206.61369015453965 106.2876397180371,207.28966575401137 104.97022949112579,207.3416638239578 101.3373709875159,210.35753892562934 100.738548157271,210.46153416438028 99.94011771678925,212.4374379439687 99.5409024967812,212.4374379439687 98.70255053439178,211.50148488537525 97.94404161605053,211.86546692196862 96.42702377936803,211.81346951096202 95.94796551507898,212.3334432808333 94.71039833244868,212.59342988178832 93.63251723814756,215.5572637502919 93.55267419409938,218.36508366453927 93.7522818041034,218.93704427292687 95.3092211629264,219.35301504898234 93.47283114981838,221.01689330601948 93.43290962814353,221.4848576685763 93.67243876005523,221.90082547580823 95.54875029507093,222.5767721287848 95.66851486102678,222.99273866400472 92.47479309956543,224.81258655598504 92.15542092337273,225.80050009835395 90.51863852050155,225.9564861971885 88.76209155190736,226.9443965740793 86.92570153903216,226.3204534961551 86.60632936307229,226.68442042404786 84.13119499781169,227.51634343736805 80.85763019230217,226.99639178128564 80.89755171444267,226.5804299110605 82.25488346302882,226.00848154828418 81.21692389040254,225.07256406900706 81.81574672088027,223.51269615118508 81.4165315006394,223.04473444679752 80.05919975182042,222.83675127025344 80.81770867016166,222.21280101320008 80.85763019230217,221.64084565304802 79.42045539966784,220.3929398684122 78.86155409133062,218.9890406463819 77.70382995298132,218.6770622918266 75.50814624177292,219.6649928127881 75.6279108079616,218.05310476457817 74.94924493366852,217.68912903676392 73.23261948674917,217.53313932559104 70.91717120958492,215.76525116781704 69.75944707123563,216.59719962681993 68.20250771241263,217.32515293790493 67.80329249240458,218.8330515032285 66.92501900810748,219.35301504898234 66.64556835382245,220.9648972277646 65.44792269333266,220.60092446865747 64.050669422606,221.64084565304802 63.05263137212023,220.8089089479472 63.17239593807608,219.6129965376167 61.93482875567861,218.7290587031166 60.73718309518881,218.31308720022207 57.82291198777966,218.10510126678855 57.104324591578916,219.14502972146147 57.06440306943841,219.8729778373381 56.26597262895666,219.8729778373381 55.267934578703716,219.35301504898234 52.792800213443115,219.04103701238637 50.67695954628289,216.59719962681993 49.79868606198579,216.02523526959703 48.52119735744782,217.01317312914762 48.601040401728824,220.08096274061245 48.12198213743977,221.01689330601948 47.92237452720292,223.096730221936 46.96425799885765,223.66868324959069 47.084022564813495,224.1366441361606 46.68480734457262,226.16446755634388 45.44724016217515,227.62033367776894 45.16778950812295,230.42805871766177 44.96818189811893,231.0 44.56896667764522,230.89601074403618 43.1317918850109,227.41235316669918 44.20967297954485,225.22855048603378 44.608888199785724,223.9806572420348 43.97014384740032,223.51269615118508 44.28951602336019,223.61668755774735 44.56896667764522,223.096730221936 44.20967297954485,223.04473444679752 43.7705362373963,221.7968335695041 43.251556450966746,221.5368536708993 43.33139949524775,220.18495514674578 42.8523412309587,219.97697030409472 43.251556450966746,219.8209815924638 42.73257666477002,219.6129965376167 42.772498186910525,219.45700766713708 43.4511640612036,219.30101872840896 42.453126010717824,218.88504789178842 42.73257666477002,218.8330515032285 43.05194884096272,218.6770622918266 42.8922627530992,218.41708012126037 43.371321017388254,218.26109072816325 43.091870363103226,217.68912903676392 43.4511640612036,217.37714954614057 42.97210579691455,216.80518643849064 43.49108558311127,216.9091797991132 43.690693193348125,215.7132543248299 42.73257666477002,215.29727930767694 43.01202731905505,214.51732484428794 42.612812098814175,213.8413629308925 41.17563730617985,213.5813772387337 40.457049909746274,212.9054135530605 40.49697143188678,212.22944858742994 40.25744229974225,211.91746432537911 39.698540991405025,211.91746432537911 40.017913167597726,211.7614720922429 39.65861946949735,211.50148488537525 39.977991645690054,210.8255172612844 39.65861946949735,210.61752696562326 39.858227079501376,208.90160240256228 39.1795612052083,208.32962571526878 38.8601890290156,206.76968463722733 39.45901185949333,205.62572351447307 41.13571578403935,203.12979561235989 42.453126010717824,201.5698318114446 40.73650056379847,200.94584438222228 39.977991645690054,199.2818725721736 39.1396396830678,198.9178777046036 38.620659896871075,198.1378874530783 37.6625433685258,197.66989248420577 37.981915544718504,197.56589351897128 37.74238641257398,197.35789549726178 37.90207250067033,197.66989248420577 35.985839443746954,198.1898868563003 34.82811530516483,197.87789032387082 35.1874090032652,197.04589823778952 33.90992029872723,194.91390966594918 34.748272261116654,193.19790961497347 34.34905704110861,191.79390343744308 33.43086203467101,191.48190131466254 34.02968486491591,190.23389009662787 32.39290246204473,190.0258878028253 32.83203920419328,189.40188019382185 32.51266702823341,188.77787149409414 32.79211768228561,187.94585819749045 31.834001153940335,186.90583884951775 31.15533527964726,187.00984092068393 30.716198537265882,186.6458335390198 30.875884625595063,185.96981884547858 30.35690483916551,185.60581040324178 30.39682636107318,184.8257910628745 31.115413757506758,182.9537376910448 32.19329485204071,182.7457311548933 33.51070507848635,181.70569665537914 33.51070507848635,182.06970907488721 34.50874312897213,181.02967260562582 35.74631031160243,180.4576512556232 36.98387749423273,179.67762066502473 36.86411292827688,176.50547870114679 37.26332814828493,176.0894579917658 38.8601890290156,175.88144745540922 39.65861946949735,174.8933957516565 40.73650056379847,174.8933957516565 41.055872740224004,174.06135009022546 42.932184275006875,172.18924026034074 44.48912363382988,171.7732145204791 45.64684777217917,170.57713781643542 46.72472886671312,170.5251343906275 49.15994170983322,169.38105710435775 51.235860854852945,169.8490891647525 51.35562542080879,169.12103902784293 49.79868606198579,167.97695724107325 49.559156929841265,166.88487575075123 52.27382042701356,165.42876189912204 55.50746371061541,165.2207451496215 57.18416763539426,164.54468987652217 57.94267655373551,163.8686333229416 59.02055764826946,163.76462450888357 58.940714604221284,163.50460234063212 56.54542328324169,162.77653926215135 56.186129585141316,162.30849792741355 56.10628654109314,161.94446535385214 57.02448154729791,160.90437024043058 56.944638503249735,160.12429691644502 58.70118547230959,159.24021175483358 60.97671222733334,159.03219139846624 62.61349462997168,157.8360719968914 63.571611158316955,156.2239047216426 64.6494922528509,155.8598659420095 64.76925681903958,155.0797815923288 64.13051246665418,154.2996955375711 64.84909986308776,152.27146381576313 64.84909986308776,152.7395183130575 64.88902138499543,151.33535297965864 65.40800117119215,151.127328015893 65.8870594354812,152.6875122881902 66.60564683191478,152.53149416777887 66.7254113976378,151.33535297965864 67.56376336026005,150.50325239732047 68.04282162431628,149.09907826554263 68.44203684455715,149.51513043607702 68.48195836669765,151.23134051292436 68.80133054265752,151.23134051292436 69.63968250527978,148.00693901014165 72.87332578841597,143.79437057551695 72.31442448031157,140.88194851164008 73.03301187674515,140.30986281335936 74.9891664555762,140.2058471334458 76.38641972607002,139.5297444743046 73.95120688318275,135.21305883995956 73.27254100865684,132.97668309920118 72.79348274460062,132.24855774088064 71.43615099601448,131.46842177971848 71.11677881982177,130.63627487493795 71.71560165006667,129.7001072873245 73.83144231699407,128.65991819885676 74.0310499269981,127.46369699871866 72.43418904626742,125.74737262056442 70.55787751148455,124.49913152458612 69.8392901152838,122.88681364673539 70.35826990148053,121.58655198747874 72.11481687030755,120.28628559043864 72.67371817841195,119.0900363207038 71.9152092600707,117.8937830410141 71.47607251792215,115.70931018225383 69.44007489504293,115.13718412868911 69.40015337313525,114.30499914023676 72.5539536124561,112.69263520272216 74.27057905914262,110.6641669976234 73.71167775103822,107.64744936666102 74.23065753723495,105.72297824340058 73.7515992729459,104.89077129974612 73.152776442701,104.99479727388825 72.83340426674113,104.68271926068701 73.1128549205605,103.69447041806416 72.63379665650427,102.70621883854619 72.75356122269295,101.97803171275882 73.07293339865282,101.56192411648226 75.38838167581707,101.24984310087166 75.9073614620138,100.83373465554905 75.74767537391745,100.15755739682936 76.46626277011819,99.32533747330308 92.51471462170593,91.36713642804534 98.14364922605455,87.41397711553145 107.1659132023342,83.9289187641989 109.04222473688424,82.68053137266543 114.63123781979084,77.37483622788568 120.93883829866536,73.5775745958963 121.77719026105478,72.7452926741098 122.8151498332154,72.53722189032123 124.0926385379862,71.39283041036106 124.1325600601267,71.6529197054042 125.84918550681323,70.45650737843243 131.87733533163555,69.0" stroke="#4DD2FF" stroke-linecap="round" stroke-linejoin="round" stroke-width="0.5"><title>2022-10-29 14.0km</title></polyline></svg>