<?xml version="1.0" encoding="utf-8" ?>
<svg baseProfile="full" height="300mm" version="1.1" viewBox="0,0,200,300" width="200mm" xmlns="http://www.w3.org/2000/svg" xmlns:ev="http://www.w3.org/2001/xml-events" xmlns:xlink="http://www.w3.org/1999/xlink"><defs /><rect fill="#222222" height="300" width="200" x="0" y="0" /><text fill="#FFFFFF" style="font-size:12px; font-family:Arial; font-weight:bold;" x="10" y="20">Over 10km Runs</text><text fill="#FFFFFF" style="font-size:4px; font-family:Arial" x="10" y="280">ATHLETE</text><text fill="#FFFFFF" style="font-size:9px; font-family:Arial" x="10" y="290">antzuhl</text><text fill="#FFFFFF" style="font-size:4px; font-family:Arial" x="120" y="280">STATISTICS</text><text fill="#FFFFFF" style="font-size:3px; font-family:Arial" x="120" y="285">Number: 4</text><text fill="#FFFFFF" style="font-size:3px; font-family:Arial" x="120" y="290">Weekly: 4.0</text><text fill="#FFFFFF" style="font-size:3px; font-family:Arial" x="141" y="285">Total: 2.7 km</text><text fill="#FFFFFF" style="font-size:3px; font-family:Arial" x="141" y="290">Avg: 0.7 km</text><text fill="#FFFFFF" style="font-size:3px; font-family:Arial" x="167" y="285">Min: 0.0 km</text><text fill="#FFFFFF" style="font-size:3px; font-family:Arial" x="167" y="290">Max: 2.6 km</text><polyline fill="none" points="42.93144424119964,61.45955848903395 43.30164533806965,61.90498340677004 44.19012797065079,61.37047347432235 45.89305301615968,61.548643493209966 47.4478976232931,61.281388449075166 47.670018281787634,61.45955848903395 48.18829981703311,61.281388449075166 49.74314442416653,61.63772848708322 50.113345521036536,61.281388449075166 50.335466179065406,61.63772848708322 52.112431444227695,62.52857785462402 52.33455210272223,62.97400214790832 52.70475319912657,63.33034139528172 53.371115173678845,63.508510956773534 53.667276051361114,63.41942618123721 54.111517367418855,63.775765220751055 54.48171846428886,63.686680476530455 55.44424131605774,63.775765220751055 56.48080438748002,64.31027346767951 56.77696526516229,64.57752745063044 58.18372943345457,64.93386594939511 58.55393052985892,64.57752745063044 59.22029250441119,63.152171792520676 59.51645338209346,62.795832461561076 59.81261425931007,62.08315330091864 60.25685557583347,61.63772848708322 61.29341864679009,59.32151526416419 61.663619744125754,59.054259439813904 61.885740402154624,58.074320615502074 63.44058500928804,55.22358233330306 64.25502742221579,54.06546686316142 65.06946983514354,52.46191946353065 65.88391224853694,51.57105834007962 67.73491773335263,51.66014449938666 68.32723948825151,51.92740291450173 69.80804387573153,52.10557513893582 71.28884826321155,52.640091563167516 72.9177330895327,52.99643563787686 73.73217550246045,52.10557513893582 75.21297989040613,52.99643563787686 77.28610603278503,53.709123287990224 77.1380255939439,53.44186549715232 76.39762340066954,53.79820919735357 75.80530164530501,53.709123287990224 74.91681901318952,53.263693584594876 74.76873857388273,52.99643563787686 73.80621572211385,52.46191946353065 73.06581352837384,53.08552163065178 73.06581352837384,53.35277954587946 73.06581352837384,53.79820919735357 73.58409506408498,54.33272443560418 75.8793418649584,54.421810272091534 77.21206581359729,54.956325073260814 78.02650822652504,55.04541083693039 78.76691042026505,55.40175378811546 80.32175502739847,55.31266806583153 81.58043875684962,56.114439191063866 82.02468007290736,56.114439191063866 83.13528336398304,56.648952806252055 84.54204753180966,56.916209473332856 86.31901279743761,57.89614978508325 87.6517367460765,59.054259439813904 88.46617915900424,59.41060051810928 89.57678244961426,59.32151526416419 91.50182815361768,60.12328217551112 92.9826325410977,60.301452486077324 94.31535649020225,59.94511182367569 94.68555758660659,60.12328217551112 95.35191956115887,60.7468780799536 95.5,61.10321836784715 95.20383912278339,61.90498340677004 94.75959780625999,62.43949296453502 94.46343692904338,62.61766273388639 93.57495429599658,62.61766273388639 92.90859232190996,63.24125659908168 92.16819012816995,63.686680476530455 91.79798903129995,64.13210409379099 91.35374771477655,65.55745792126982 90.98354661790654,66.0919649200514 90.83546617953107,66.8937247156864 90.02102376613766,68.14090494532138 89.72486288845539,69.47716721502366 89.35466179158539,70.45709139137762 88.61425959784538,71.43701430916553 88.68829981703311,72.86235448817024 88.09597806213424,74.28769200429088 87.6517367460765,74.91127633006545 87.50365630723536,75.53486014617374 87.57769652688876,75.98027684545377 87.20749542955309,77.13835904671578 86.83729433268309,77.7619410426123 86.61517367465422,78.6527715807315 86.09689213894308,79.5436010787962 85.80073126126081,80.70167787093669 84.69012797065079,83.0178261816036 84.54204753180966,83.55232094711391 82.83912248630077,87.29377381963423 82.61700182780623,87.6501017078408 82.69104204745963,87.82826558942907 81.21023765997961,89.60990211722674 80.91407678229734,90.41163719753968 80.0996343693696,91.48061599378707 79.95155393052846,92.19326769228792 79.6553930528462,92.63867466582451 79.72943327249959,92.81683738256106 79.43327239481732,93.17316269106232 78.47074954304844,93.35132528294344 78.24862888501957,93.52948783291504 78.02650822652504,94.15305643115425 77.1380255939439,95.66743519058218 76.84186471672729,96.38008297822671 76.91590493591502,96.73640662257094 76.39762340066954,98.25078025396215 75.73126142611727,98.42894165997859 75.064899451565,98.25078025396215 73.88025594176725,96.82548750756541 73.36197440559044,95.93467818875797 73.21389396721497,95.5783541702549 71.73308957973495,94.15305643115425 70.91864716634154,93.79673158033984 70.4744058502838,93.88581280881772 69.28976234002039,93.61856909247581 68.17915904941037,93.17316269106232 65.14351005479693,92.63867466582451 64.32906764186919,92.37143051292514 63.73674588697031,91.83694192609983 63.21846435079351,91.65877898054896 62.107861060183495,90.58980043407064 61.21937842806801,89.60990211722674 60.92321755038574,88.09551133395871 60.18281535664573,85.86846060329117 59.886654478963464,84.17589770013001 59.59049360174686,83.90865058277268 59.368372943252325,83.37415606691502 59.44241316244006,82.92874368443154 59.29433272406459,82.66149613022571 58.109689213801175,81.32525695394725 56.55484460713342,80.61259510321543 55.370201096870005,79.81084972532699 54.851919561158866,79.81084972532699 53.889396709389985,79.27635233855108 53.667276051361114,78.38552252849331 53.00091407680884,77.9401072334731 51.29798903129995,77.49469167814823 49.669104204978794,77.31652538350318 48.410420475527644,76.87110946403118 47.74405850097537,76.78202624910045 46.55941499071196,76.24752674030606 46.48537477152422,75.89119352627313 45.89305301615968,75.3566933934926 45.67093235813081,75.00035976350773 44.9305301643908,74.46585900662467 44.04204753180966,74.10952496022219 42.857404022011906,74.28769200429088 42.33912248630077,74.10952496022219 42.0429616086185,74.02044142282102 41.22851919522509,73.21868911688216 40.858318098820746,73.04052182327723 40.48811700195074,72.6841871116194 38.414990859571844,71.61518197727855 37.4524680073373,71.3479304597131 36.71206581359729,71.3479304597131 36.71206581359729,71.52609814854804 36.56398537475616,71.52609814854804 36.41590493591502,71.3479304597131 36.19378427788615,71.43701430916553 35.74954296182841,71.08067884825869 35.08318098727614,71.16976272925967 34.34277879353613,70.99159495724598 31.677330895792693,71.79334960365668 31.01096892124042,71.70426579558989 30.27056672750041,72.06060096540023 29.382084094919264,71.79334960365668 28.937842778861523,71.52609814854804 27.75319926859811,71.3479304597131 26.938756855670363,71.61518197727855 26.27239488111809,71.3479304597131 23.97714808024466,72.06060096540023 23.01462522847578,72.06060096540023 22.422303473576903,71.97151718847454 21.089579524938017,72.23876848758664 20.867458866443485,71.97151718847454 20.49725777003914,72.23876848758664 19.904936014674604,72.23876848758664 19.460694698616862,72.32785223302199 18.424131627194583,72.14968473161571 17.831809871830046,72.23876848758664 17.609689213801175,72.14968473161571 17.46160877496004,72.4169359683292 16.647166362032294,72.5951034075697 16.27696526516229,72.4169359683292 16.054844606667757,71.3479304597131 16.27696526516229,70.81342714349739 16.351005484350026,70.18983946804656 15.906764168292284,68.14090494532138 15.906764168292284,67.69548366911476 15.684643509797752,66.00288044620538 15.314442412927747,64.66661209106678 15.388482632581145,63.24125659908168 15.092321754898876,62.61766273388639 14.5,62.26132315356517 14.870201096870005,61.81589844397968 15.536563070956618,62.08315330091864 15.684643509797752,61.90498340677004 16.351005484350026,61.90498340677004 16.795246800407767,61.45955848903395 17.831809871830046,61.19230341364164 19.23857404058799,61.19230341364164 21.01553930528462,60.7468780799536 21.75594149902463,60.83596316765761 21.75594149902463,61.01413331128424 22.126142595894635,61.19230341364164" stroke="yellow" stroke-linecap="round" stroke-linejoin="round" stroke-width="0.5"><title>2021-09-07 2.6km</title></polyline><polyline fill="none" points="159.42580765485764,115.5 135.3827949166298,80.78573051095009 130.57419234514236,34.5 135.3827949166298,34.5 154.61720511317253,69.2143019400537 145.0,92.3571563847363" stroke="yellow" stroke-linecap="round" stroke-linejoin="round" stroke-width="0.5"><title>2021-09-07 0.0km</title></polyline><polyline fill="none" points="95.5,205.50817942619324 14.5,244.49182057380676" stroke="yellow" stroke-linecap="round" stroke-linejoin="round" stroke-width="0.5"><title>2021-09-07 0.0km</title></polyline><polyline fill="none" points="141.25997164845467,211.5000094473362 111.33974477648735,184.5 178.66025519371033,265.5 163.700141787529,256.5000042170286 118.81980147957802,265.5" stroke="yellow" stroke-linecap="round" stroke-linejoin="round" stroke-width="0.5"><title>2021-09-07 0.0km</title></polyline></svg>